<?xml version="1.0" encoding="utf-8"?>
<!-- Generator: Adobe Illustrator 27.7.0, SVG Export Plug-In . SVG Version: 6.00 Build 0)  -->
<svg version="1.1" id="Layer_2_00000011723530373062010690000001643211894390322062_"
	 xmlns="http://www.w3.org/2000/svg" xmlns:xlink="http://www.w3.org/1999/xlink" x="0px" y="0px" viewBox="0 0 525.3 100"
	 style="enable-background:new 0 0 525.3 100;" xml:space="preserve">
<style type="text/css">
	.st0{fill:#DEE0E3;}
	.st1{font-family:'ITCAvantGardePro-Bold';}
	.st2{font-size:40px;}
</style>
<g id="Layer_2-2">
	<g id="horizontal">
		<g id="logo">
			<g>
				<path class="st0" d="M151.8,98.4l-14.4-20.2h-0.2v20.2H122V36h20.4c6.5,0,11.5,0.8,14.8,2.3c6.8,3,11.5,10.4,11.5,19.2
					c0,9.9-5.9,18-15.5,19.6l16.9,21.2L151.8,98.4L151.8,98.4z M143.2,67.4c6.3,0,10.2-2.9,10.2-8.9c0-5.4-4.1-8.4-10-8.4h-6.1v17.4
					H143.2L143.2,67.4z"/>
				<path class="st0" d="M209.9,98.4v-5.1h-0.2c-2,4.1-7.6,6.7-13.7,6.7c-13.8,0-23.4-10.9-23.4-25s10-25,23.4-25
					c5.7,0,11.1,2.3,13.7,6.6h0.2v-5h14v46.8L209.9,98.4L209.9,98.4z M209.9,75c0-6.6-5.3-11.9-11.9-11.9s-11.5,5.3-11.5,12.1
					s5.1,11.8,11.6,11.8S209.9,81.7,209.9,75z"/>
				<path class="st0" d="M255.5,99.8c-14.2,0-25.2-10.5-25.2-24.9s11.2-24.9,25.2-24.9s25.2,10.5,25.2,24.7S269.6,99.8,255.5,99.8z
					 M266.7,75c0-6.2-4.7-11.8-11.3-11.8c-6.2,0-11.1,5.4-11.1,11.8s4.9,11.8,11.2,11.8S266.7,81.2,266.7,75z"/>
				<path class="st0" d="M316.3,98.4v-26c0-6.3-2.2-9.3-7.3-9.3c-5.6,0-8,3.1-8,9.4v25.8h-14V51.6H300v5h0.2c3-4.8,7.1-6.6,12.7-6.6
					c8.4,0,17.4,4.7,17.4,18.5v29.8L316.3,98.4L316.3,98.4L316.3,98.4z"/>
				<path class="st0" d="M377.6,98.4v-6.7h-0.2c-3.6,5.1-9.7,7.8-16.5,7.8c-13.6,0-24.3-10.3-24.3-24s10.1-25.1,24-25.1
					c6.3,0,12.3,2.3,16.1,7h0.2V36h8.8v62.4C385.7,98.4,377.6,98.4,377.6,98.4z M361.4,58.4c-8.9,0-15.9,7.5-15.9,16.7
					s7.2,16.4,15.9,16.4s16.3-7.2,16.3-16.1C377.6,65.9,371.2,58.4,361.4,58.4z"/>
				<path class="st0" d="M433.7,98.4v-7.2h-0.2c-3.3,5.6-9.2,8.4-15.9,8.4c-13.7,0-24.8-10.3-24.8-23.8c0-14.9,10.7-25.4,24.5-25.4
					c6.8,0,12.6,2.5,16.2,7.8h0.2v-6.6h8.8v46.7L433.7,98.4L433.7,98.4z M433.9,75.1c0-9.1-6.6-16.7-16.3-16.7
					c-8.8,0-15.9,7.5-15.9,16.7s7.2,16.4,15.9,16.4S433.9,84,433.9,75.1z"/>
				<path class="st0" d="M453.5,98.4V59.7h-6.3v-8h6.3V36h8.8v15.7h7.7v8h-7.7v38.7C462.3,98.4,453.5,98.4,453.5,98.4z"/>
				<path class="st0" d="M512.6,98.4v-7.2h-0.2c-3.3,5.6-9.2,8.4-15.9,8.4c-13.7,0-24.8-10.3-24.8-23.8c0-14.9,10.7-25.4,24.5-25.4
					c6.8,0,12.6,2.5,16.2,7.8h0.2v-6.6h8.8v46.7L512.6,98.4L512.6,98.4z M512.7,75.1c0-9.1-6.6-16.7-16.3-16.7
					c-8.8,0-15.9,7.5-15.9,16.7s7.2,16.4,15.9,16.4S512.7,84,512.7,75.1z"/>
			</g>
			<g id="logo-2">
				<path class="st0" d="M68.2,99.2c-0.7,0-1.3-0.3-1.7-0.9l-6.7-10.6c-0.3-0.5-0.4-1.1-0.2-1.6s0.5-1,1.1-1.2l1.5-0.7
					c0.5-0.2,0.9-0.4,1.4-0.7C76.2,77.4,83.9,64,83.2,49.4c-0.8-14.8-9.7-27.3-22.7-31.8c-3.1-1-6.6-1.6-10.4-1.7
					c-12.3-0.2-24.3-0.2-38.7,0c-3.1,0-5.1-1.1-6.4-3.8c-1-1.9-2.1-3.8-3.3-5.8c-0.5-0.9-1-1.7-1.5-2.6c0-0.1-0.1-0.2-0.1-0.3
					c-0.4-1,0-2.2,0.9-2.7c0.6-0.4,1.4-0.4,1.6-0.4c5.4,0,10.9-0.1,16.2-0.2C31.3,0,44-0.2,56.5,0.6C75.3,2,89.2,13.1,96.6,32.9l0,0
					c8.6,23,0.2,49.1-20,62.1c-1.6,1-3.2,1.8-4.9,2.7c-0.8,0.4-1.7,0.9-2.6,1.3C68.8,99.1,68.5,99.2,68.2,99.2L68.2,99.2z
					 M64.4,87.5l4.5,7.1c0.3-0.2,0.7-0.3,1-0.5c1.6-0.8,3.2-1.6,4.6-2.5c18.7-12,26.4-36.1,18.5-57.3l0,0C86,15.8,73.6,5.9,56.2,4.7
					C43.9,3.8,31.2,4,19,4.2C14.5,4.2,9.9,4.3,5.3,4.3c1.2,1.9,2.3,4,3.4,6c0.6,1.2,1.1,1.6,2.8,1.6c14.4-0.1,26.5-0.2,38.8,0
					c4.1,0.1,8.1,0.7,11.6,1.9c14.6,5,24.6,18.9,25.4,35.4c0.8,16.2-7.8,31.1-22,37.9C65,87.2,64.7,87.3,64.4,87.5z"/>
				<path class="st0" d="M94.8,33.6C88.2,15.9,75.7,4,56.3,2.7C38.5,1.4,20.6,2.3,2.8,2.3c-0.1,0-0.4,0-0.7,0.2C2,2.5,2,2.6,2,2.7
					c1.7,2.9,3.4,5.6,4.9,8.5c1,2,2.3,2.7,4.6,2.7c12.9-0.1,25.8-0.2,38.7,0c3.7,0.1,7.5,0.6,11,1.8c13.9,4.8,23.3,18.1,24,33.6
					c0.8,15.4-7.4,29.5-20.9,36c-0.9,0.4-1.8,0.8-2.8,1.4c2.3,3.6,4.4,7,6.7,10.6c2.6-1.4,5.1-2.5,7.3-4
					C94.9,80.8,103.1,55.8,94.8,33.6"/>
				<path class="st0" d="M11,99.6c-0.5,0-1-0.2-1.3-0.5c-0.8-0.7-0.9-2-0.1-2.8c2.8-3.1,5.3-5.9,8-8.8l2.5-2.8
					c0.4-0.5,1-0.7,1.6-0.7c0.6,0.1,1.2,0.4,1.5,0.9c2.1,3.3,4.1,6.4,6.2,9.8l1.1,1.8c0.4,0.6,0.4,1.4,0.1,2s-1,1-1.8,1H11z
					 M15.5,95.6h9.6c-1.4-2.1-2.6-4.2-4-6.3l-0.7,0.8C18.8,92,17.2,93.8,15.5,95.6z"/>
				<path class="st0" d="M11,97.6h17.8c-2.6-4.1-4.9-7.7-7.3-11.6C17.9,90,14.6,93.6,11,97.6"/>
				<path class="st0" d="M47.6,100c-2.3,0-4.2,0-5.8-0.1c0,0-0.1,0-0.1,0c-0.2,0-0.4-0.1-0.5-0.1c-0.9-0.1-1.7-0.6-2.2-1.4l-0.3-0.4
					c-0.2-0.2-0.3-0.4-0.4-0.6c0,0-0.1-0.1-0.1-0.1c-1-1.6-2.1-3.3-3.1-4.9L33,89l-3.8-5.9c-3.1-4.8-6.4-9.9-9.2-14.4
					c-0.3-0.5-0.6-1-0.7-1.6c-0.2-0.9,0-1.9,0.5-2.6c0.5-0.8,1.3-1.3,2.3-1.4c0.4-0.1,0.8-0.1,1.1-0.1c1.3,0,2.6,0,3.9,0
					c1.3,0,2.6,0,3.9,0c1.8,0,3.6,0,5.4,0c0.5,0,1.1,0,1.6,0c3.1,0,7-0.1,10.5-0.7c0,0,0.1,0,0.2,0c4.6-1.2,8-4.8,8.7-9.2V53
					c0.1-1,0.1-1.9,0.1-2.8c-0.1-0.9-0.3-1.8-0.7-2.6c-1.7-4.3-5.8-7.2-10.6-7.5c0,0-9.1-0.2-9.1-0.2c0,0-3.4,0-7.1,0
					c-2.8,0-4.9,0-6.4,0h-0.2c-2.4,0-4-1-5.2-3c-1.2-2.2-2.6-4.3-4-6.6c-0.6-0.9-1.1-1.9-1.8-2.9c-0.4-0.6-0.4-1.3-0.1-1.9
					c0.3-0.6,0.9-1,1.6-1.1c0.8-0.1,2.4-0.1,4.7-0.1h4.9c1.9,0,3.7,0,6.3,0c2.7,0,9.7,0.2,12.7,0.4c0.1,0,6.8,0.5,8.8,0.9
					c12,2.5,21,12.2,21.9,23.8c0.1,0.7,0.1,1.4,0.1,2c0,0.9-0.1,1.8-0.1,2.7c-0.4,6-3.2,11.8-7.8,16.3c-4.5,4.4-9,6.4-16.1,7.1
					c-1,0.1-2,0.2-3.1,0.3c0,0-1.7,0.1-2,0.1c1.6,2.6,3.3,5.3,4.8,7.7c2.3,3.7,4.8,7.7,6.9,11.1c0.4,0.6,0.4,1.4,0,2
					c0,0.1-0.1,0.1-0.1,0.2c-0.4,0.6-1,1-1.7,1c-1.2,0-2.3,0-3.4,0C49.6,100,48.6,100,47.6,100L47.6,100z"/>
				<path class="st0" d="M46.1,38.1L46.1,38.1c5.8,0.3,10.6,3.9,12.5,8.7c0.4,1,0.7,2.1,0.8,3.2c0.1,1.1,0,2.2-0.1,3.2
					c-0.8,5.3-4.9,9.6-10.3,10.9c0,0-0.1,0-0.1,0c-4.3,0.7-9.2,0.7-12.6,0.8c-4.4,0.1-8.8,0-13.2,0c-0.3,0-0.5,0-0.8,0
					c-0.8,0.1-1.3,0.8-1.1,1.6c0.1,0.3,0.2,0.7,0.4,1c4,6.3,8.6,13.4,13,20.3c1.7,2.7,3.5,5.5,5.2,8.2c0.1,0.2,0.2,0.4,0.4,0.6
					c0.1,0.2,0.2,0.3,0.3,0.5c0.2,0.4,0.5,0.5,0.9,0.6c0.1,0,0.2,0.1,0.3,0.1c3.9,0.2,7.8,0.1,12.3,0.1c0-0.1-0.1-0.1-0.1-0.2h0.2
					c-2.1-3.4-4.5-7.3-6.9-11.1c-2.3-3.7-4.6-7.3-6.6-10.6c0.9-0.1,1.8-0.1,2.6-0.2c1-0.1,1.9-0.1,2.8-0.2c1,0,2-0.1,3-0.2
					c6.5-0.7,10.7-2.5,14.9-6.6c4.4-4.3,6.8-9.6,7.2-15.1c0.1-0.8,0.1-1.6,0.1-2.5c0-0.6,0-1.3-0.1-1.9c-0.9-10.9-9.3-19.7-20.3-22
					c-1.5-0.3-7.2-0.8-8.5-0.8c-3.1-0.2-10.1-0.3-12.6-0.4c-4.3-0.1-6.4,0-10.7,0c-0.7,0-3.7,0-5,0.1c2.1,3.5,4,6.4,5.8,9.5
					c0.8,1.5,1.9,2,3.6,2c4.5-0.1,13.6,0,13.6,0L46.1,38.1L46.1,38.1L46.1,38.1z"/>
			</g>
		</g>
	</g>
</g>
<text transform="matrix(1 0 0 1 120.9955 30.1593)" class="st0 st1 st2">works by</text>
</svg>
