<?xml version="1.0" encoding="UTF-8"?>
<svg id="Layer_2" data-name="Layer 2" xmlns="http://www.w3.org/2000/svg" viewBox="0 0 525.33 100">
  <defs>
    <style>
      .cls-1 {
        fill: #dee0e3;
      }
    </style>
  </defs>
  <g id="Layer_2-2" data-name="Layer 2">
    <g id="horizontal">
      <g id="logo">
        <g>
          <path class="cls-1" d="m155.85,81.4l-14.42-20.15h-.17v20.15h-15.26V19h20.41c6.49,0,11.47.84,14.76,2.28,6.75,3.04,11.47,10.37,11.47,19.23,0,9.87-5.9,17.96-15.52,19.65l16.95,21.25h-18.22Zm-8.69-31.03c6.32,0,10.2-2.95,10.2-8.94,0-5.4-4.05-8.43-10.03-8.43h-6.07v17.37h5.9Z"/>
          <path class="cls-1" d="m213.95,81.4v-5.06h-.17c-2.02,4.13-7.59,6.66-13.74,6.66-13.83,0-23.44-10.88-23.44-25.04s10.03-24.96,23.44-24.96c5.73,0,11.05,2.28,13.74,6.58h.17v-4.97h14v46.8h-14Zm0-23.44c0-6.58-5.31-11.89-11.89-11.89s-11.47,5.31-11.47,12.06,5.14,11.8,11.64,11.8,11.72-5.23,11.72-11.97Z"/>
          <path class="cls-1" d="m259.48,82.83c-14.25,0-25.21-10.54-25.21-24.87s11.21-24.88,25.21-24.88,25.21,10.54,25.21,24.71-11.13,25.04-25.21,25.04Zm11.22-24.87c0-6.24-4.72-11.81-11.3-11.81-6.16,0-11.13,5.4-11.13,11.81s4.89,11.8,11.21,11.8,11.22-5.56,11.22-11.8Z"/>
          <path class="cls-1" d="m320.27,81.4v-25.97c0-6.32-2.19-9.28-7.34-9.28-5.65,0-8.01,3.12-8.01,9.44v25.8h-14v-46.8h13.07v4.97h.17c2.95-4.81,7.08-6.58,12.73-6.58,8.43,0,17.37,4.72,17.37,18.55v29.85h-14v.02Z"/>
          <path class="cls-1" d="m381.65,81.4v-6.66h-.17c-3.63,5.06-9.7,7.84-16.53,7.84-13.58,0-24.28-10.29-24.28-24.03s10.12-25.13,24.03-25.13c6.32,0,12.31,2.28,16.11,7h.17v-21.42h8.77v62.4s-8.1,0-8.1,0Zm-16.27-39.97c-8.94,0-15.94,7.5-15.94,16.7s7.17,16.44,15.94,16.44,16.27-7.25,16.27-16.11c0-9.53-6.41-17.03-16.27-17.03Z"/>
          <path class="cls-1" d="m437.73,81.4v-7.25h-.17c-3.29,5.56-9.19,8.43-15.85,8.43-13.66,0-24.79-10.29-24.79-23.78,0-14.93,10.71-25.38,24.45-25.38,6.83,0,12.56,2.53,16.19,7.84h.17v-6.58h8.77v46.71h-8.77Zm.17-23.27c0-9.11-6.58-16.7-16.27-16.7-8.77,0-15.94,7.5-15.94,16.7s7.17,16.44,15.94,16.44,16.27-7.59,16.27-16.44Z"/>
          <path class="cls-1" d="m457.54,81.4v-38.7h-6.32v-8.01h6.32v-15.68h8.77v15.68h7.67v8.01h-7.67v38.7s-8.77,0-8.77,0Z"/>
          <path class="cls-1" d="m516.56,81.4v-7.25h-.17c-3.29,5.56-9.19,8.43-15.85,8.43-13.66,0-24.79-10.29-24.79-23.78,0-14.93,10.71-25.38,24.45-25.38,6.83,0,12.56,2.53,16.19,7.84h.17v-6.58h8.77v46.71h-8.77Zm.17-23.27c0-9.11-6.58-16.7-16.27-16.7-8.77,0-15.94,7.5-15.94,16.7s7.17,16.44,15.94,16.44,16.27-7.59,16.27-16.44Z"/>
        </g>
        <g id="logo-2">
          <path class="cls-1" d="m68.19,99.23c-.67,0-1.31-.33-1.69-.93l-6.68-10.59c-.3-.48-.39-1.07-.23-1.62.16-.55.54-1,1.06-1.25l1.48-.71c.47-.22.92-.43,1.36-.65,12.72-6.13,20.46-19.5,19.73-34.07-.75-14.8-9.65-27.27-22.69-31.78-3.06-1.05-6.64-1.64-10.36-1.7-12.28-.21-24.34-.16-38.68-.03-3.06-.01-5.05-1.13-6.4-3.77-1-1.95-2.11-3.83-3.28-5.81-.51-.86-1.02-1.72-1.52-2.6-.05-.09-.1-.19-.14-.28-.4-1.05-.01-2.16.95-2.69.64-.4,1.42-.43,1.64-.43,5.4,0,10.91-.08,16.23-.15C31.27-.03,43.98-.22,56.45.65c18.88,1.31,32.77,12.45,40.17,32.21h0c8.6,22.96.18,49.06-20.04,62.05-1.57,1.01-3.18,1.84-4.89,2.72-.83.43-1.69.87-2.55,1.34-.3.17-.63.24-.96.24Zm-3.79-11.75l4.49,7.12c.33-.17.65-.34.98-.5,1.62-.83,3.15-1.62,4.56-2.53,18.65-11.99,26.41-36.08,18.46-57.29h0c-6.91-18.45-19.26-28.41-36.71-29.63-12.3-.86-24.93-.67-37.14-.49-4.51.07-9.16.14-13.76.15,1.15,1.94,2.33,3.95,3.38,6,.61,1.19,1.14,1.64,2.8,1.59,14.37-.13,26.46-.18,38.78.03,4.13.07,8.14.73,11.6,1.92,14.59,5.04,24.55,18.92,25.38,35.36.81,16.18-7.82,31.05-21.99,37.87-.27.13-.55.26-.83.4Z"/>
          <path class="cls-1" d="m94.76,33.57C88.15,15.92,75.73,4,56.32,2.65c-17.78-1.24-35.71-.32-53.57-.34-.06,0-.41.02-.67.18-.09.05-.1.1-.05.23,1.67,2.9,3.38,5.64,4.85,8.5,1.01,1.97,2.3,2.7,4.6,2.68,12.91-.12,25.82-.19,38.73.03,3.68.06,7.52.62,10.98,1.81,13.88,4.8,23.25,18.14,24.03,33.57.77,15.4-7.39,29.48-20.86,35.97-.89.43-1.77.84-2.85,1.36,2.29,3.63,4.4,6.98,6.68,10.59,2.61-1.42,5.07-2.54,7.32-3.99,19.35-12.44,27.6-37.39,19.25-59.67"/>
          <path class="cls-1" d="m10.99,99.64c-.48,0-.96-.17-1.34-.52-.82-.74-.88-2.01-.14-2.83,2.78-3.07,5.34-5.9,7.97-8.81l2.49-2.75c.42-.46,1.02-.71,1.65-.65.62.05,1.18.39,1.52.92,2.1,3.3,4.06,6.41,6.18,9.75l1.15,1.82c.39.62.41,1.4.06,2.03s-1.02,1.04-1.75,1.04H10.99Zm4.51-4h9.65c-1.35-2.13-2.65-4.18-3.98-6.28l-.72.8c-1.66,1.83-3.28,3.63-4.95,5.48Z"/>
          <path class="cls-1" d="m11,97.64h17.78c-2.57-4.06-4.86-7.68-7.33-11.57-3.56,3.94-6.81,7.54-10.46,11.57"/>
          <path class="cls-1" d="m47.59,100c-2.35,0-4.15-.03-5.82-.11-.04,0-.08,0-.13,0-.2-.02-.38-.06-.53-.11-.92-.14-1.66-.64-2.17-1.45l-.27-.43c-.15-.19-.28-.39-.4-.56,0-.01-.06-.08-.06-.09-1.04-1.63-2.08-3.27-3.11-4.9l-2.11-3.34-3.83-5.95c-3.13-4.85-6.36-9.88-9.2-14.36-.32-.49-.56-1.03-.69-1.57-.21-.94-.05-1.87.46-2.62.51-.76,1.32-1.26,2.27-1.41.41-.07.79-.07,1.1-.07,1.29,0,2.58,0,3.86.01,1.28,0,2.56.01,3.85.01,1.81,0,3.61-.01,5.42-.05.52-.01,1.07-.02,1.64-.03,3.14-.05,7.05-.1,10.52-.68.05-.01.11-.03.17-.04,4.61-1.19,8.02-4.78,8.72-9.18v-.11c.07-.97.13-1.88.07-2.75-.09-.86-.32-1.77-.66-2.64-1.67-4.27-5.83-7.19-10.61-7.45-.02,0-9.14-.25-9.14-.25-.04,0-3.43-.03-7.08-.03-2.77,0-4.93.02-6.42.05h-.22c-2.37,0-4.01-.95-5.17-3-1.22-2.16-2.55-4.31-3.96-6.59-.57-.92-1.15-1.86-1.75-2.85-.36-.59-.39-1.33-.08-1.94.31-.62.92-1.03,1.61-1.09.83-.07,2.37-.11,4.69-.11h4.86c1.94,0,3.72,0,6.34.04,2.66.04,9.69.22,12.72.38.1,0,6.85.48,8.78.88,11.96,2.45,20.97,12.22,21.91,23.76.06.71.09,1.4.09,2.04,0,.94-.05,1.85-.14,2.7-.44,6.01-3.2,11.83-7.78,16.3-4.45,4.36-8.96,6.36-16.06,7.14-.95.14-2.02.23-3.13.26,0,0-1.67.1-1.99.12,1.59,2.56,3.29,5.27,4.84,7.74,2.35,3.73,4.83,7.67,6.94,11.13.38.62.39,1.39.04,2.02-.04.07-.08.14-.13.21-.36.6-1.01.97-1.71.97-1.18,0-2.33,0-3.44.01-1.06,0-2.08.01-3.09.01Z"/>
          <path class="cls-1" d="m46.1,38.11h.04c5.74.29,10.53,3.87,12.42,8.72.4,1.02.67,2.1.79,3.22.08,1.08,0,2.15-.07,3.23-.8,5.29-4.92,9.57-10.31,10.92-.04,0-.07.02-.12.03-4.3.74-9.19.69-12.57.76-4.39.1-8.78.03-13.17.03-.26,0-.53,0-.78.04-.81.13-1.28.8-1.1,1.6.08.34.24.67.43.96,3.97,6.28,8.62,13.45,13.02,20.3,1.74,2.74,3.47,5.5,5.22,8.24.12.18.25.38.41.58.11.17.22.35.33.52.24.38.52.53.92.56.11.04.21.07.31.08,3.88.17,7.76.08,12.26.08-.03-.05-.06-.1-.09-.15h.19c-2.08-3.4-4.51-7.27-6.93-11.11-2.32-3.69-4.62-7.35-6.59-10.57.93-.08,1.78-.1,2.56-.19,1.02-.05,1.89-.11,2.81-.16,1-.03,1.99-.11,2.97-.25,6.48-.71,10.68-2.47,14.88-6.58,4.38-4.28,6.79-9.63,7.19-15.09.09-.81.13-1.64.13-2.48,0-.63-.03-1.26-.08-1.88-.88-10.85-9.29-19.7-20.32-21.96-1.55-.32-7.15-.75-8.48-.84-3.06-.16-10.12-.34-12.64-.38-4.34-.06-6.36-.04-10.7-.04-.72,0-3.72-.01-4.98.1,2.12,3.47,4.02,6.44,5.75,9.5.84,1.49,1.89,2.02,3.6,1.98,4.53-.1,13.6-.02,13.6-.02l9.08.25h.02Z"/>
        </g>
      </g>
    </g>
  </g>
</svg>